<?xml version="1.0" encoding="UTF-8" standalone="no"?>
<!-- Created with Inkscape (http://www.inkscape.org/) -->

<svg
   width="1000"
   height="500"
   viewBox="0 0 1000 500"
   version="1.1"
   id="svg1"
   xml:space="preserve"
   xmlns="http://www.w3.org/2000/svg"
   xmlns:svg="http://www.w3.org/2000/svg"><defs
     id="defs1" /><g
     id="layer1"
     transform="translate(44.177877,-221.89343)"><rect
       style="fill:#282828;fill-opacity:1;stroke:none;stroke-width:3;stroke-linejoin:round;stroke-dasharray:none;stroke-opacity:1"
       id="rect362"
       width="1000"
       height="500"
       x="-44.177876"
       y="221.89343"
       ry="76.600182" /><g
       id="g6"
       transform="matrix(2.0930381,0,0,2.0930381,-21.602963,316.21554)">
	<g
   id="g3">
		<path
   class="st0"
   d="m 130.4,6.5 h 81.8 V 31 H 157 v 22.4 h 52.2 V 77.9 H 157 v 24.5 h 58.3 v 24.5 H 130.5 V 6.5 Z"
   id="path1" />
		<path
   class="st0"
   d="m 237.5,6.5 h 81.8 V 31 H 264 v 22.4 h 52.2 V 77.9 H 264 v 24.5 h 58.3 v 24.5 h -84.8 z"
   id="path2" />
		<path
   class="st0"
   d="m 343.5,6.5 h 39.8 c 9.6,0 18.8,1.1 27.5,3.2 8.7,2.2 16.2,5.6 22.7,10.5 6.5,4.8 11.6,11.1 15.4,18.8 3.8,7.7 5.7,17.1 5.7,28 0,9.7 -1.8,18.3 -5.5,25.8 -3.7,7.4 -8.6,13.7 -14.9,18.7 -6.2,5 -13.4,8.9 -21.6,11.5 -8.2,2.6 -16.7,3.9 -25.7,3.9 H 343.6 V 6.5 Z m 26.5,95.8 h 13.8 c 6.1,0 11.8,-0.6 17.1,-1.9 5.3,-1.2 9.8,-3.3 13.7,-6.2 3.9,-2.9 6.9,-6.7 9.1,-11.4 2.2,-4.7 3.3,-10.5 3.3,-17.3 0,-5.9 -1.1,-11 -3.3,-15.4 -2.2,-4.4 -5.2,-8 -8.9,-10.8 -3.7,-2.8 -8.1,-5 -13.2,-6.4 -5,-1.4 -10.3,-2.1 -15.9,-2.1 H 370 Z"
   id="path3" />
	</g>
	<path
   class="st1"
   d="M 37.9,45.9 C 48.1,30.2 68.9,24.6 85.8,33.6 L 103.9,27.8 98.3,10.1 C 69.6,-5.1 34.5,4 16.5,30.1 Z"
   id="path4" />
	<g
   id="g5">
		<path
   class="st0"
   d="m 12.7,36.2 c -16.3,30.8 -4.6,69.2 26.2,85.5 27,14.4 59.9,7.1 78.6,-15.8 l -21.2,-16 c -0.8,0.9 -1.7,1.8 -2.6,2.7 v 0 C 82.6,103.1 65.6,105.9 51.3,98.3 33.4,88.8 26.6,66.6 36.1,48.7 c 0.5,-1 1.1,-1.9 1.7,-2.8 L 16.5,30.1"
   id="path5" />
	</g>
</g></g><style
     type="text/css"
     id="style1">
	.st0{fill:#FFFFFF;}
	.st1{fill:#DE4727;}
</style><style
     type="text/css"
     id="style1-5">
	.st0{fill:#FFFFFF;}
	.st1{fill:#DF4526;}
</style></svg>
