<?xml version="1.0" encoding="UTF-8" standalone="no"?>
<!-- Created with Inkscape (http://www.inkscape.org/) -->

<svg
   width="1000"
   height="500"
   viewBox="0 0 1000 500"
   version="1.1"
   id="svg1"
   xml:space="preserve"
   xmlns="http://www.w3.org/2000/svg"
   xmlns:svg="http://www.w3.org/2000/svg"><defs
     id="defs1" /><g
     id="layer1"
     transform="translate(-6015.8221,-221.89343)"><rect
       style="fill:#282828;fill-opacity:1;stroke:none;stroke-width:3;stroke-linejoin:round;stroke-dasharray:none;stroke-opacity:1"
       id="rect362-8"
       width="1000"
       height="500"
       x="6015.8223"
       y="221.89343"
       ry="76.600182" /><g
       id="g4"
       transform="matrix(1.9839259,0,0,1.9839259,6041.9228,338.58695)">
	<path
   class="st0"
   d="m 445.6,37.9 c -2.6,-3.2 -5.8,-5.6 -9.6,-7.3 -3.8,-1.7 -8.2,-2.5 -13.1,-2.5 -5,0 -9.6,1 -13.8,2.9 -4.2,1.9 -7.9,4.6 -11,8.1 -3.1,3.4 -5.5,7.5 -7.3,12.3 -1.8,4.7 -2.6,9.9 -2.6,15.4 0,5.7 0.9,10.8 2.6,15.5 1.8,4.7 4.2,8.8 7.2,12.2 3.1,3.4 6.6,6.1 10.8,8.1 4.1,1.9 8.6,2.9 13.3,2.9 5.4,0 10.2,-1.1 14.4,-3.4 4.2,-2.3 7.6,-5.4 10.3,-9.5 l 22,16.4 c -5.1,7.1 -11.5,12.4 -19.3,15.8 -7.8,3.4 -15.8,5.1 -24.1,5.1 -9.4,0 -18,-1.5 -25.9,-4.4 -7.9,-2.9 -14.8,-7.1 -20.5,-12.6 -5.8,-5.5 -10.3,-12.1 -13.5,-19.9 -3.2,-7.8 -4.8,-16.5 -4.8,-26.1 0,-9.6 1.6,-18.3 4.8,-26.1 3.2,-7.8 7.7,-14.4 13.5,-19.9 5.8,-5.5 12.6,-9.7 20.5,-12.6 7.9,-2.9 16.6,-4.4 25.9,-4.4 3.4,0 6.9,0.3 10.6,0.9 3.7,0.6 7.3,1.6 10.9,3 3.6,1.4 7,3.2 10.3,5.4 3.3,2.3 6.2,5 8.8,8.3 z"
   id="path1-0" />
	<polygon
   class="st0"
   points="287.8,53.5 339.8,53.5 339.8,77.9 287.8,77.9 287.8,102.3 346,102.3 346,126.7 261.4,126.7 261.4,6.7 342.9,6.7 342.9,31.1 287.8,31.1 "
   id="polygon1" />
	<path
   class="st0"
   d="m 237.1,118.3 c -7.8,4.1 -15.9,7 -24.4,8.8 -8.5,1.8 -17.1,2.7 -25.9,2.7 -9.4,0 -18,-1.5 -25.9,-4.4 -7.9,-2.9 -14.7,-7.1 -20.5,-12.6 -5.8,-5.5 -10.3,-12.1 -13.5,-19.9 -3.2,-7.8 -4.8,-16.5 -4.8,-26.1 0,-9.6 1.6,-18.3 4.8,-26.1 3.2,-7.8 7.7,-14.4 13.5,-19.9 5.8,-5.5 12.6,-9.7 20.5,-12.6 7.9,-2.9 16.6,-4.4 25.9,-4.4 9.6,0 18.5,1.2 26.5,3.5 8.1,2.3 15.2,6.3 21.3,12 l -18.7,20.3 c -3.6,-3.7 -7.7,-6.6 -12.2,-8.5 -4.5,-1.9 -10.2,-2.9 -17,-2.9 -5.7,0 -10.8,1 -15.3,2.9 -4.6,1.9 -8.5,4.6 -11.8,8.1 -3.3,3.4 -5.8,7.5 -7.5,12.3 -1.8,4.7 -2.6,9.9 -2.6,15.4 0,5.7 0.9,10.8 2.6,15.5 1.8,4.7 4.3,8.8 7.5,12.2 3.3,3.4 7.2,6.1 11.8,8.1 4.6,1.9 9.7,2.9 15.3,2.9 5.8,0 10.7,-0.6 14.9,-1.9 4.2,-1.3 7.5,-2.6 10,-4 V 79.9 H 190.1 V 55.5 h 47 z"
   id="path2-9" />
	<path
   class="st1"
   d="M 37.4,46.2 C 47.6,30.6 68.2,25.1 84.9,34 L 102.8,28.3 97.2,10.8 C 68.9,-4.3 34,4.7 16.2,30.5 Z"
   id="path3-6" />
	<path
   class="st0"
   d="m 12.5,36.6 c -16.2,30.5 -4.6,68.5 25.9,84.8 26.8,14.3 59.4,7 77.9,-15.7 l -21,-15.9 c -0.8,0.9 -1.7,1.8 -2.6,2.7 v 0 c -11,10.4 -27.9,13.1 -42,5.6 C 33,88.8 26.3,66.7 35.7,49 c 0.5,-1 1.1,-1.9 1.7,-2.8 L 16.2,30.5"
   id="path4-3" />
</g></g><style
     type="text/css"
     id="style1">
	.st0{fill:#FFFFFF;}
	.st1{fill:#DE4727;}
</style><style
     type="text/css"
     id="style1-5">
	.st0{fill:#FFFFFF;}
	.st1{fill:#DF4526;}
</style></svg>
