<?xml version="1.0" encoding="UTF-8" standalone="no"?>
<!-- Created with Inkscape (http://www.inkscape.org/) -->

<svg
   width="1000"
   height="500"
   viewBox="0 0 1000 500"
   version="1.1"
   id="svg1"
   xml:space="preserve"
   xmlns="http://www.w3.org/2000/svg"
   xmlns:svg="http://www.w3.org/2000/svg"><defs
     id="defs1" /><g
     id="layer1"
     transform="translate(-965.82212,-221.89343)"><rect
       style="fill:#282828;fill-opacity:1;stroke:none;stroke-width:3;stroke-linejoin:round;stroke-dasharray:none;stroke-opacity:1"
       id="rect362-7"
       width="1000"
       height="500"
       x="965.82214"
       y="221.89343"
       ry="76.600182" /><g
       id="layer1-2"
       transform="matrix(8.834815,0,0,8.834815,1007.0832,320.77891)"><path
         id="rect3122"
         style="fill:#df4526;fill-opacity:1;stroke-width:0.0568865;stroke-linecap:round;stroke-linejoin:round;paint-order:fill markers stroke;stop-color:#000000"
         d="M 11.740751,1.4886633 32.076327,13.229409 20.335571,33.56499 0,21.824234 Z" /><path
         id="rect3124"
         style="fill:#df4526;fill-opacity:1;stroke:#ffffff;stroke-width:3.61238;stroke-linecap:square;paint-order:fill markers stroke;stop-color:#000000"
         d="M 7.5757278,9.0643861 H 24.500602 V 25.989256 H 7.5757258 Z" /><text
         xml:space="preserve"
         style="font-style:normal;font-variant:normal;font-weight:bold;font-stretch:normal;font-size:18.6669px;line-height:1.25;font-family:'Helvetica Now Text';-inkscape-font-specification:'Helvetica Now Text, Bold';font-variant-ligatures:normal;font-variant-caps:normal;font-variant-numeric:normal;font-variant-east-asian:normal;letter-spacing:0.949775px;fill:#ffffff;stroke-width:0.466669"
         x="36.307556"
         y="24.191072"
         id="text3199"><tspan
           id="tspan3197"
           style="font-style:normal;font-variant:normal;font-weight:bold;font-stretch:normal;font-size:18.6669px;font-family:'Helvetica Now Text';-inkscape-font-specification:'Helvetica Now Text, Bold';font-variant-ligatures:normal;font-variant-caps:normal;font-variant-numeric:normal;font-variant-east-asian:normal;fill:#ffffff;stroke-width:0.466669"
           x="36.307556"
           y="24.191072">EEF</tspan></text><text
         xml:space="preserve"
         style="font-style:normal;font-variant:normal;font-weight:normal;font-stretch:normal;font-size:3.79912px;line-height:1.25;font-family:'Helvetica Now Text';-inkscape-font-specification:'Helvetica Now Text, Normal';font-variant-ligatures:normal;font-variant-caps:normal;font-variant-numeric:normal;font-variant-east-asian:normal;letter-spacing:-0.192126px;fill:#ffffff;stroke-width:0.117225"
         x="83.250618"
         y="14.081092"
         id="text3253"><tspan
           id="tspan3251"
           style="font-style:normal;font-variant:normal;font-weight:normal;font-stretch:normal;font-size:3.79912px;font-family:'Helvetica Now Text';-inkscape-font-specification:'Helvetica Now Text, Normal';font-variant-ligatures:normal;font-variant-caps:normal;font-variant-numeric:normal;font-variant-east-asian:normal;fill:#ffffff;stroke-width:0.117225"
           x="83.250618"
           y="14.081092">Engineering</tspan><tspan
           style="font-style:normal;font-variant:normal;font-weight:normal;font-stretch:normal;font-size:3.79912px;font-family:'Helvetica Now Text';-inkscape-font-specification:'Helvetica Now Text, Normal';font-variant-ligatures:normal;font-variant-caps:normal;font-variant-numeric:normal;font-variant-east-asian:normal;fill:#ffffff;stroke-width:0.117225"
           x="83.250618"
           y="18.829992"
           id="tspan4624">Endowement</tspan><tspan
           style="font-style:normal;font-variant:normal;font-weight:normal;font-stretch:normal;font-size:3.79912px;font-family:'Helvetica Now Text';-inkscape-font-specification:'Helvetica Now Text, Normal';font-variant-ligatures:normal;font-variant-caps:normal;font-variant-numeric:normal;font-variant-east-asian:normal;fill:#ffffff;stroke-width:0.117225"
           x="83.250618"
           y="23.578892"
           id="tspan4626">Fund</tspan></text><path
         style="fill:#ffffff;stroke:#ffffff;stroke-width:0.316592px;stroke-linecap:butt;stroke-linejoin:miter;stroke-opacity:1"
         d="m 77.987125,10.900286 v 13.29079"
         id="path4691" /><path
         id="path4877"
         style="fill:#ffffff;fill-opacity:1;stroke-width:0.0362814"
         d="m 15.991258,13.119536 c -0.197184,-3.34e-4 -0.386778,0.01449 -0.53501,0.04583 -0.505073,0.107456 -0.968685,0.391835 -1.253239,0.768705 l -0.150798,0.199748 h -0.469875 -0.469875 l 0.0093,0.22678 0.0093,0.226784 -0.46027,0.0094 -0.46027,0.0094 v 3.63919 c 0,2.001534 0.01074,3.650088 0.02414,3.663389 0.01389,0.01374 1.73578,0.02424 3.827715,0.02424 h 3.803498 v -3.664178 -3.664442 h -0.453512 -0.4535 V 14.368589 14.132723 H 18.490309 18.021685 L 17.890064,13.95339 C 17.653105,13.630586 17.31663,13.391104 16.884488,13.237677 16.669597,13.161347 16.31984,13.118968 15.991189,13.118388 Z m 0.04823,0.403234 c 0.04633,4.45e-4 0.09333,0.0025 0.140753,0.005 0.668429,0.04213 1.164335,0.320917 1.480947,0.832741 l 0.106616,0.172347 h 0.376203 0.376188 l 0.01074,0.24488 0.01075,0.24488 0.462569,0.0094 0.462583,0.0094 v 3.228029 3.227998 H 16.038225 12.60965 v -3.227998 -3.227983 l 0.462574,-0.0094 0.462589,-0.0094 0.01074,-0.24488 0.01075,-0.24488 h 0.374139 0.374149 l 0.12791,-0.192617 c 0.361578,-0.544601 0.912608,-0.824278 1.607002,-0.817648 z m -0.0071,1.938284 -0.994697,0.355299 c -1.786542,0.638156 -2.010234,0.719943 -2.037997,0.745404 -0.01544,0.01374 -0.0013,0.101808 0.03063,0.195511 0.0611,0.179258 0.09203,0.19493 0.257488,0.130583 0.05614,-0.02174 0.322555,-0.117985 0.591951,-0.213606 0.269393,-0.09562 0.861979,-0.307383 1.316903,-0.47055 l 0.827117,-0.296668 0.188783,0.0608 c 0.103742,0.03328 0.596909,0.207963 1.095782,0.387897 1.375912,0.496266 1.59248,0.571901 1.638201,0.571901 0.05181,0 0.168748,-0.330036 0.130533,-0.368332 -0.01544,-0.01519 -0.280612,-0.11701 -0.589783,-0.226344 -0.309159,-0.109267 -0.774396,-0.274919 -1.033801,-0.368068 -0.259416,-0.09309 -0.685275,-0.244588 -0.946367,-0.336553 z m -2.769464,1.611641 v 0.106731 c 0,0.05863 0.01624,0.11679 0.03618,0.129169 0.01994,0.01229 0.03633,0.05563 0.03633,0.0962 0,0.04248 0.02984,0.08161 0.07006,0.09215 0.03848,0.0094 0.07656,0.03708 0.08475,0.06008 0.0078,0.02279 0.0031,0.474453 -0.01239,1.003261 -0.01544,0.5288 -0.02878,1.013416 -0.03033,1.076952 -0.0031,0.09822 -0.01779,0.117265 -0.102698,0.126965 -0.08723,0.0094 -0.101148,0.02894 -0.111208,0.151428 -0.0062,0.07683 -0.0031,0.162722 0.0078,0.190662 0.01674,0.04298 0.444243,0.04953 2.805144,0.04163 l 2.785674,-0.0094 V 19.95709 c 0,-0.169198 -0.006,-0.182122 -0.09609,-0.192506 l -0.09608,-0.01084 -0.02109,-0.55129 c -0.01075,-0.303185 -0.02789,-0.801314 -0.03603,-1.106974 l -0.01544,-0.55573 0.08664,-0.03293 c 0.05073,-0.01919 0.08675,-0.06247 0.08675,-0.104341 0,-0.03923 0.01629,-0.08136 0.03613,-0.0937 0.01999,-0.01229 0.03613,-0.07047 0.03613,-0.12917 v -0.106775 h -2.775442 z m 2.078874,0.220627 c 0.02644,-2.09e-4 0.06126,9.99e-4 0.10721,0.005 0.167355,0.0094 0.191907,0.02099 0.202317,0.09454 0.006,0.04772 0.04872,0.09764 0.09764,0.116175 l 0.08568,0.03258 -0.01699,0.663859 c -0.0096,0.365129 -0.02634,0.863884 -0.03768,1.108327 l -0.02069,0.444483 h -0.301666 -0.301666 l -0.01999,-0.263045 c -0.01074,-0.144626 -0.02789,-0.643407 -0.03743,-1.108273 l -0.01734,-0.845187 0.08867,-0.03368 c 0.06234,-0.02354 0.08867,-0.06138 0.08867,-0.127215 0,-0.0675 0.0048,-0.08614 0.0834,-0.08675 z m -1.154083,4.71e-4 c 0.02614,-4.34e-4 0.06016,9.95e-4 0.105021,0.0035 0.162317,0.0094 0.18708,0.02134 0.197444,0.09439 0.0062,0.04903 0.04903,0.09776 0.101923,0.117845 0.04952,0.01884 0.08149,0.04808 0.07095,0.06497 -0.01075,0.01699 -0.02009,0.421025 -0.02164,0.898035 -0.0012,0.477017 -0.01234,0.961159 -0.02419,1.0759 l -0.02154,0.208613 h -0.303045 c -0.285139,0 -0.30396,-0.005 -0.319552,-0.08172 -0.0093,-0.04483 -0.02629,-0.54424 -0.03823,-1.109656 -0.02149,-1.02067 -0.02119,-1.028147 0.05398,-1.047814 0.04733,-0.01229 0.08368,-0.05946 0.09682,-0.125661 0.01544,-0.07669 0.02319,-0.09764 0.101768,-0.09895 z m 2.321983,0 c 0.02609,-4.34e-4 0.06031,9.95e-4 0.105061,0.0035 0.160888,0.0094 0.187179,0.02174 0.197229,0.09236 0.0071,0.05027 0.04473,0.08986 0.09776,0.103147 l 0.08615,0.02174 -0.01749,0.894568 c -0.0096,0.492009 -0.02634,0.996572 -0.03708,1.121287 l -0.01964,0.22678 h -0.301611 -0.301681 l -0.02104,-0.589596 c -0.05911,-1.650258 -0.05935,-1.630317 0.01844,-1.650682 0.04273,-0.01085 0.07969,-0.06113 0.09237,-0.124502 0.01544,-0.07669 0.02309,-0.09764 0.101588,-0.09895 z m 1.354839,4.3e-4 c 0.07275,0.0025 0.09022,0.02134 0.113313,0.0827 0.01889,0.04983 0.06928,0.10912 0.111883,0.131888 0.07693,0.04113 0.07718,0.04723 0.05002,0.900196 -0.01544,0.472314 -0.02858,0.964911 -0.03023,1.094617 l -0.0036,0.235795 -0.312161,0.01084 -0.312176,0.01084 -0.02334,-0.224355 c -0.01234,-0.123417 -0.02344,-0.628192 -0.02344,-1.121813 0,-0.853739 0.0036,-0.898386 0.0694,-0.915664 0.03843,-0.0094 0.07491,-0.05671 0.08161,-0.103982 0.01075,-0.07467 0.03483,-0.08723 0.184641,-0.09693 0.03878,-0.0025 0.06916,-0.0035 0.09345,-0.0035 z m -1.82393,3.116364 c -1.772265,0 -2.999427,0.01374 -3.011599,0.03328 -0.01074,0.01809 -0.0047,0.07706 0.01639,0.130693 0.02554,0.06699 0.05476,0.09059 0.09388,0.07561 0.03123,-0.01229 1.369871,-0.02174 2.9746,-0.02174 h 2.91768 v -0.10887 -0.108864 z m -3.176766,0.399126 v 0.108905 0.108869 h 3.174611 3.174691 v -0.108871 -0.108903 h -3.174706 z" /></g></g><style
     type="text/css"
     id="style1">
	.st0{fill:#FFFFFF;}
	.st1{fill:#DE4727;}
</style><style
     type="text/css"
     id="style1-5">
	.st0{fill:#FFFFFF;}
	.st1{fill:#DF4526;}
</style></svg>
