<?xml version="1.0" encoding="UTF-8" standalone="no"?>
<!-- Created with Inkscape (http://www.inkscape.org/) -->

<svg
   width="1000"
   height="500"
   viewBox="0 0 1000 500"
   version="1.1"
   id="svg1"
   xml:space="preserve"
   xmlns="http://www.w3.org/2000/svg"
   xmlns:svg="http://www.w3.org/2000/svg"><defs
     id="defs1" /><g
     id="layer1"
     transform="translate(-1975.8221,-221.89343)"><rect
       style="fill:#282828;fill-opacity:1;stroke:none;stroke-width:3;stroke-linejoin:round;stroke-dasharray:none;stroke-opacity:1"
       id="rect362-7-9"
       width="1000"
       height="500"
       x="1975.8221"
       y="221.89343"
       ry="76.600182" /><g
       id="g360"
       transform="matrix(1.1821962,0,0,1.1821962,-430.05339,-87.359958)"><path
         style="fill:#ffffff;fill-opacity:1;stroke:none;stroke-width:0.942167"
         d="m 2152.3201,468.29615 c -14.2932,-0.002 -28.6194,-3.66855 -42.8671,-0.75513 -7.5521,1.54427 -14.8886,5.89659 -15.2968,14.39466 -0.4161,8.66279 6.9363,13.98715 14.8096,15.02349 1.8962,0.24957 5.4616,1.33392 7.013,-0.21651 1.2592,-1.25845 0.7811,-3.94163 0.7811,-5.55158 v -14.12666 h 26.7919 c 2.0628,0 7.8339,-0.99655 9.2418,0.78106 0.9448,1.19287 0.5007,3.64675 0.5007,5.06446 v 13.63953 c 0,3.23423 1.3894,10.6994 -0.5007,13.39109 -1.3595,1.93622 -5.6434,2.3316 -7.7804,2.866 -7.5875,1.89734 -15.1522,2.92817 -22.8949,3.85416 -22.8566,2.73349 -56.9093,0.90742 -64.9893,-25.46964 -1.0671,-3.48371 -1.7017,-7.05756 -1.7452,-10.71678 -0.057,-4.75311 0.019,-9.48944 1.2055,-14.12666 7.5409,-29.47407 47.1727,-29.78822 71.3744,-26.93102 5.6871,0.6714 11.3731,0.97586 17.0495,1.88761 1.8467,0.29664 5.1011,0.24541 6.5258,1.59221 1.4738,1.39313 0.7811,5.0517 0.7811,6.88892 v 18.51079 m 53.0967,20.94643 14.1267,20.45929 c -5.3947,1.19421 -12.4308,0 -18.0237,0 -1.9816,0 -4.9399,0.53383 -6.7179,-0.50066 -4.0687,-2.36724 -7.4816,-10.59448 -9.8444,-14.60025 v 15.10091 h -21.4335 v -49.19974 h 32.1503 c 5.4214,0 11.5748,-0.90292 16.5604,1.64518 7.4798,3.82289 7.7236,16.79063 2.7397,22.69008 -2.3625,2.79648 -6.0498,3.93245 -9.5576,4.40519 m 67.7105,-28.74045 v 13.63954 h -18.5107 l -7.0112,0.78104 -0.7829,6.03872 h 26.3048 v 9.25539 h -25.8176 v 6.81977 h 25.8176 v 12.66528 h -47.2512 v -49.19974 h 47.2512 m 54.071,0 13.1525,49.19974 h -20.9465 c -0.3375,-1.63644 -1.7481,-5.55159 -1.7481,-5.55159 l -14.8423,-0.0365 -3.0055,5.43318 c 0,0 -13.9839,0.15484 -19.8613,0.15484 l 9.8166,-36.04733 4.0729,-12.65175 9.0055,-0.50065 h 24.3562 m 60.4037,0 v 19.48504 l -13.1524,0.48713 c 2.5182,8.51905 0.4871,20.32955 0.4871,29.22756 h -21.9206 v -29.71469 h -12.6653 v -19.48504 h 47.2512 m -202.6445,12.17814 v 11.20391 c 3.8802,0 8.6752,0.67357 12.0741,-1.63992 2.6868,-1.8288 2.8424,-6.73521 0.012,-8.52171 -3.1646,-1.99747 -8.5125,-1.04228 -12.086,-1.04228 m 125.1914,0 -5.3583,21.92069 h 11.2038 l -5.8455,-21.92069 m 159.9436,-34.28851 v 20.45929 c 0,1.87724 -0.7001,5.58561 1.1291,6.80624 3.5582,2.37436 13.6085,0.50066 17.8688,0.50066 V 438.3917 h 38.9701 v 79.40156 h -38.9701 v -24.84344 h -13.1524 l -5.0645,0.78106 -0.781,6.52584 v 17.53654 h -38.4829 V 438.3917 h 38.4829 m 89.6312,20.11126 c 8.8429,-1.04686 20.6389,0.1315 27.2336,6.72617 9.2484,9.24841 9.0305,30.3343 -0.4857,39.32152 -4.6635,4.40435 -11.3887,5.56128 -17.4925,6.28376 -8.8981,1.05331 -20.7667,-0.39763 -27.2283,-7.18737 -8.576,-9.01142 -8.6544,-28.99322 -0.01,-37.95671 4.8253,-5.00081 11.3574,-6.40358 17.9782,-7.18737 m 299.0954,15.93607 c -6.1247,-1.1411 -12.2944,-1.46179 -18.5108,-1.46138 -2.0085,1.3e-4 -5.9084,-0.43045 -6.247,2.43599 -0.3413,2.88963 3.9242,2.91013 5.7599,2.92204 6.1211,0.0398 15.197,0.10615 18.9329,5.85301 5.571,8.5699 0.5353,20.65226 -8.2162,24.41119 -11.8624,5.09521 -25.2825,1.39137 -37.5087,0.42511 v -12.66528 c 6.1973,0.0512 12.2861,1.91853 18.5109,1.94814 2.0798,0.01 5.6528,0.48229 6.5927,-1.99928 0.6883,-1.81709 -1.1716,-2.9673 -2.6961,-3.24749 -3.8004,-0.69845 -7.8261,-0.19534 -11.6907,-0.89832 -10.5583,-1.92061 -14.1231,-11.36272 -11.4523,-21.13361 3.7591,-13.75269 23.0107,-13.70913 34.3473,-12.31685 3.0188,0.37072 8.9873,0.005 11.3971,2.08155 2.2346,1.92621 0.781,10.81364 0.781,13.64518 m -214.3355,10.22965 v 0.48713 c 11.6923,0.53431 16.5859,16.77829 5.3392,22.24992 -5.4731,2.66278 -12.1027,2.10639 -18.0045,2.10639 h -30.6889 v -49.68687 h 30.6889 c 5.7838,0 12.0342,-0.66032 17.5366,1.49521 6.5824,2.57861 8.3306,11.82946 4.5292,17.50235 -2.2208,3.31409 -5.7781,4.66519 -9.4005,5.84587 m 62.3521,0 v 0.48713 c 11.8686,0.54237 16.9239,16.73018 5.3584,22.24805 -5.517,2.63219 -12.0885,2.10826 -18.0236,2.10826 h -30.2019 v -32.63743 l -0.4871,-17.04941 h 30.2019 c 5.7251,0 12.0386,-0.70078 17.5364,1.24112 6.8742,2.42802 9.4808,11.69614 5.2371,17.71321 -2.3137,3.28049 -5.9588,4.69537 -9.6212,5.8891 m 40.9187,-24.84343 v 49.68687 h -21.4336 v -49.68687 h 21.4336 m 56.5065,0 -0.5005,13.3456 -6.3191,0.78105 h -18.998 v 6.81977 h 25.8176 l -0.057,8.47247 -5.7884,0.57094 -19.4851,-0.27514 -0.4871,6.81976 h 25.8177 v 13.15242 h -46.7641 v -49.68687 h 46.7641 m -184.6208,12.17815 v 8.28115 c 3.4481,0 9.5676,1.18023 12.6367,-0.50066 2.3579,-1.2914 2.8374,-5.71856 0.4045,-7.20616 -3.0081,-1.83921 -9.5854,-0.57433 -13.0412,-0.57433 m 62.3521,0 v 8.28115 c 3.6785,0 9.2115,1.0371 12.6439,-0.36161 2.5143,-1.02456 3.4048,-5.16688 1.2325,-7.01444 -2.7458,-2.33532 -10.4403,-0.9051 -13.8764,-0.9051 m -119.833,1.72112 c -9.7372,2.37004 -7.8699,26.59252 3.8971,23.9045 10.1251,-2.31299 8.8006,-26.99519 -3.8971,-23.9045 m 57.4809,16.30255 v 9.2554 c 4.068,0 9.8921,0.85999 13.611,-1.12911 2.2613,-1.20948 2.7603,-5.05636 0.7915,-6.79757 -3.0806,-2.7246 -10.5838,-1.32872 -14.4025,-1.32872 m 63.2008,0.98777 c -1.4512,1.17421 -1.4997,7.09774 0.2804,7.9737 2.7002,1.32865 10.9877,0.79764 13.3734,-1.04002 2.1924,-1.68865 1.922,-5.47303 -0.4679,-6.86 -2.0085,-1.16563 -11.3307,-1.57457 -13.1859,-0.0737"
         id="path57" /><path
         id="path337"
         style="fill:#38bfc0;fill-opacity:0.996078;stroke:none;stroke-width:0.942167"
         d="m 2095.1346,487.61804 c -15.5212,-1.2039 -28.2701,-2.30314 -39.4062,-3.31445 0.2853,2.32834 0.7099,4.63256 1.4004,6.88671 8.08,26.37706 42.1336,28.2042 64.9902,25.47071 7.7427,-0.92599 15.307,-1.95618 22.8945,-3.85352 2.137,-0.5344 6.4198,-0.93096 7.7793,-2.86719 1.8901,-2.69169 0.502,-10.15639 0.502,-13.39062 v -5.14453 c -12.3619,-0.61832 -24.2709,-1.47102 -36.5352,-2.32227 v 2.10742 c 0,1.60995 0.478,4.29429 -0.7812,5.55274 -1.5514,1.55043 -5.1155,0.46637 -7.0117,0.2168 -5.9669,-0.7854 -11.6183,-4.0441 -13.8321,-9.3418 z m 68.3887,4.24219 v 17.84179 h 21.4336 v -15.10156 c 2.3628,4.00577 5.777,12.23432 9.8457,14.60156 1.778,1.03449 4.7352,0.5 6.7168,0.5 5.5929,0 12.6287,1.19421 18.0234,0 l -11.7793,-17.06054 c -2.4514,0.0379 -5.2667,0.18554 -7.5937,0.18554 -11.0833,0 -23.6893,-0.41378 -36.6465,-0.96679 z m 62.3535,0.33984 v 17.50195 h 47.25 v -12.66601 h -25.8164 v -6.03516 c -7.3264,0.44977 -14.6892,0.90957 -21.4336,1.19922 z m 59.9141,-3.95703 -5.8438,21.45898 c 5.8774,0 19.8614,-0.15429 19.8614,-0.15429 l 3.0058,-5.4336 14.8418,0.0371 c 0,0 1.4106,3.91434 1.7481,5.55078 h 20.9472 l -6.6933,-25.03906 c -6.7799,0.52705 -13.2572,0.93221 -19.9258,1.46094 l 2.2617,8.47656 h -11.2031 l 1.9414,-7.94726 c -7.1996,0.57015 -13.9666,1.05491 -20.9414,1.58984 z m 67.2246,-4.96094 v 26.41992 h 21.9219 c 0,-8.47896 1.7962,-19.57054 -0.209,-27.9707 -7.2627,0.48478 -14.4512,1.01428 -21.7129,1.55078 z m 78.5937,-4.56055 v 39.07227 h 38.4825 v -17.53711 l 0.7812,-6.52539 5.0645,-0.78125 h 13.1523 v 24.84375 h 38.9707 v -37.125 c -23.606,-1.48113 -46.4712,-2.48828 -67.9414,-2.48828 -9.199,0 -18.8079,0.23797 -28.5098,0.54101 z m 103.9317,2.5 c -0.7821,8.31183 1.2406,17.20313 6.2109,22.42579 6.4616,6.78974 18.3285,8.24081 27.2266,7.1875 6.1038,-0.72248 12.8306,-1.88081 17.4941,-6.28516 4.6455,-4.38724 7.0362,-11.66222 7.2305,-19.03125 -7.1029,-0.558 -13.9862,-1.01034 -21.0449,-1.55469 0.5459,5.99064 -1.6293,12.52924 -6.6055,13.66602 -7.459,1.7039 -10.9075,-7.38867 -9.9766,-14.89063 -6.8321,-0.503 -13.7981,-1.07101 -20.5351,-1.51758 z m 65.584,4.84766 v 23.44336 h 30.6894 c 5.9018,0 12.5308,0.55536 18.0039,-2.10742 7.592,-3.6936 7.7188,-12.21301 3.4746,-17.57813 -17.3094,-1.12621 -34.732,-2.39279 -52.1679,-3.75781 z m 25.9882,3.59961 c 2.7383,-0.008 5.3855,0.3252 6.9258,1.6875 1.9688,1.74121 1.4684,5.5874 -0.7929,6.79688 -3.7189,1.9891 -9.5414,1.1289 -13.6094,1.1289 v -9.25586 c 1.9093,0 4.7383,-0.34902 7.4765,-0.35742 z m 36.8516,0.8418 v 19.00195 h 30.2012 c 5.9351,0 12.5064,0.52282 18.0234,-2.10937 6.5356,-3.11812 7.6339,-9.59341 5.3242,-14.77735 -6.7751,-0.11617 -13.5934,-0.27901 -20.5117,-0.53515 1.344,1.72373 1.2941,4.46654 -0.5117,5.85742 -2.3857,1.83766 -10.6729,2.36966 -13.3731,1.04101 -1.6513,-0.81259 -1.6734,-5.82673 -0.5175,-7.50586 -6.1904,-0.29848 -12.3734,-0.59822 -18.6348,-0.97265 z m 62.3516,2.1875 v 16.81445 h 21.4336 v -16.81445 c -1.8745,0.0316 -3.8614,0.10351 -5.7149,0.1289 -5.12,0.0701 -10.4855,-0.0924 -15.7187,-0.1289 z m 31.1757,-0.21875 v 17.0332 h 46.7637 v -13.15234 h -25.8164 l 0.3125,-4.39063 c -7.2138,0.22333 -14.1928,0.35579 -21.2598,0.50977 z m 61.3907,-2.06446 c 1.431,0.76697 2.9976,1.40938 4.8593,1.74805 3.8646,0.70298 7.8891,0.19999 11.6895,0.89844 1.5245,0.28019 3.3856,1.43096 2.6973,3.24805 -0.9399,2.48157 -4.514,2.00804 -6.5938,1.99804 -6.2248,-0.0296 -12.3125,-1.89606 -18.5098,-1.94726 v 12.66406 c 12.2262,0.96626 25.6455,4.67138 37.5079,-0.42383 7.4147,-3.18477 12.0875,-12.33348 9.9765,-20.26953 -13.3869,0.72497 -27.0179,1.44168 -41.6269,2.08398 z m -559.1153,-0.19726 h 13.3594 v -1.01367 c -4.3405,0.31875 -9.152,0.72592 -13.3594,1.01367 z" /><path
         id="path336"
         style="fill:#36b4e5;fill-opacity:0.996078;stroke:none;stroke-width:0.942167"
         d="m 2107.662,438.27429 c -21.71,0.26457 -45.4166,5.96867 -51.0723,28.07422 -1.0759,4.20511 -1.2013,8.49432 -1.1797,12.80078 9.4459,0.89327 22.9481,2.10655 38.7832,3.38672 8e-4,-0.20604 -0.047,-0.38944 -0.037,-0.59961 0.4082,-8.49807 7.7448,-12.85026 15.2969,-14.39453 14.2477,-2.91342 28.574,0.7519 42.8672,0.7539 v -18.50976 c 0,-1.83722 0.6925,-5.49554 -0.7813,-6.88867 -1.4247,-1.3468 -4.6787,-1.29711 -6.5254,-1.59375 -5.6764,-0.91175 -11.3637,-1.21532 -17.0508,-1.88672 -6.0504,-0.7143 -13.0641,-1.23077 -20.3007,-1.14258 z m 323.9472,0.11719 v 35.04297 c 7.351,-0.25786 14.7424,-0.55961 21.8887,-0.5918 22.8313,-0.10285 48.1823,1.08243 74.5625,2.79492 v -37.24609 h -38.9707 v 27.76562 c -4.2603,0 -14.309,1.87436 -17.8672,-0.5 -1.8292,-1.22063 -1.1308,-4.9294 -1.1308,-6.80664 v -20.45898 z m 405.4063,19.72265 c -10.3735,0.0449 -21.9073,2.59955 -24.7266,12.91407 -1.6402,6.00072 -0.8785,11.83517 2.3828,15.90234 18.0585,-1.00288 31.6747,-2.10748 43.6778,-3.20703 -3.9309,-5.23928 -12.5994,-5.35009 -18.5332,-5.38867 -1.8357,-0.0119 -6.1011,-0.0322 -5.7598,-2.92188 0.3386,-2.86644 4.2395,-2.43542 6.248,-2.43555 6.2164,-4.1e-4 12.3851,0.31984 18.5098,1.46094 0,-2.83154 1.4534,-11.71832 -0.7812,-13.64453 -2.4098,-2.07655 -8.3777,-1.71131 -11.3965,-2.08203 -2.8342,-0.34807 -6.1633,-0.61263 -9.6211,-0.59766 z m -270.2324,0.0703 c -2.4524,-0.0663 -4.8479,0.0566 -7.0586,0.31835 h -0.01 c -6.6208,0.7838 -13.1532,2.18669 -17.9785,7.1875 -2.6033,2.69937 -4.3325,6.4252 -5.332,10.52735 7.0634,0.48472 14.0515,0.93086 21.2304,1.47461 1.0274,-1.96209 2.4856,-3.47175 4.5196,-3.9668 4.5012,-1.09563 7.4663,1.38977 9.0957,5.04102 7.3904,0.58097 14.7633,1.15379 22.1914,1.7539 -0.6658,-5.96852 -2.7769,-11.58355 -6.4844,-15.29101 -4.946,-4.946 -12.8168,-6.84592 -20.1738,-7.04492 z m 135.75,1.5332 c -2.981,-0.0678 -5.991,0.10742 -8.8536,0.10742 h -30.2031 l 0.4883,17.04883 v 9.0039 c 17.4387,1.16945 34.2721,2.02691 50.4355,2.54297 -1.9581,-1.82287 -4.4673,-3.12391 -7.5683,-3.26562 v -0.48633 c 3.6624,-1.19373 7.3074,-2.60818 9.6211,-5.88867 4.2437,-6.01707 1.6359,-15.28487 -5.2383,-17.71289 -2.7489,-0.97095 -5.7007,-1.2818 -8.6816,-1.34961 z m -61.8457,0.0469 c -2.9731,-0.10458 -5.9812,0.0605 -8.8731,0.0605 h -30.6894 v 21.2832 c 14.8049,1.19682 29.3381,2.25582 43.9121,3.33399 3.4188,-1.13967 6.7396,-2.48211 8.8418,-5.61914 3.8014,-5.67289 2.0531,-14.92335 -4.5293,-17.50196 -2.7512,-1.07776 -5.6891,-1.45206 -8.6621,-1.55664 z m 85.6289,0.0605 v 28.89063 c 3.6365,0.068 7.5086,0.25584 11.0429,0.27148 3.5747,0.0158 6.8874,-0.0672 10.3907,-0.082 v -29.08008 z m 31.1757,0 v 29.00195 c 16.7016,-0.20061 32.3504,-0.672 46.7188,-1.35742 l 0.045,-6.69726 h -25.8164 v -6.82032 h 18.9981 l 6.3183,-0.78125 0.5,-13.3457 z m -553.375,0.54492 c -2.8392,-0.0926 -5.7326,0.13281 -8.4433,0.13281 h -32.1504 v 26.65235 c 12.0413,0.61477 24.0913,1.15116 35.7754,1.45703 2.7869,0.073 5.8672,-0.0563 8.7344,-0.0391 2.6232,-0.65093 5.1724,-1.64242 6.9414,-3.73633 4.9839,-5.89945 4.7395,-18.86656 -2.7403,-22.68945 -2.4928,-1.27405 -5.2779,-1.68472 -8.1172,-1.77735 z m 21.7598,0.13281 v 27.99219 c 14.9866,-0.41474 30.9105,-1.43743 47.25,-2.70312 v -4.83008 h -26.3047 l 0.7832,-6.03906 7.0117,-0.78125 h 18.5098 V 460.5028 Z m 76.9649,0 -9.0059,0.5 -4.0723,12.65235 -3.0195,11.08789 c 6.8863,-0.58472 13.8985,-1.22217 20.9121,-1.86524 l 2.4922,-10.19726 2.5957,9.73633 c 6.5884,-0.61003 13.1753,-1.1965 19.8281,-1.81836 l -5.373,-20.09571 z m 37.5097,0 v 19.37696 c 15.7534,-1.46061 31.5577,-2.88319 47.25,-4.0586 V 460.5028 Z m 348.834,11.07813 c 2.6964,-0.0656 5.3048,0.16047 6.6777,1.32812 2.1723,1.84757 1.2819,5.98912 -1.2324,7.01368 -3.4324,1.39871 -8.9641,0.36132 -12.6426,0.36132 v -8.28125 c 1.7181,0 4.5009,-0.35623 7.1973,-0.42187 z m -62.8613,0.0195 c 2.4523,-0.0863 4.8494,0.057 6.3535,0.97656 2.4329,1.4876 1.9516,5.91564 -0.4063,7.20703 -3.0691,1.68089 -9.1866,0.5 -12.6347,0.5 v -8.28125 c 1.7279,1e-5 4.2352,-0.31602 6.6875,-0.40234 z m -435.1699,0.85156 c 2.1792,0.0109 4.3063,0.27081 5.8886,1.26953 2.8304,1.78651 2.6754,6.69464 -0.012,8.52344 -3.3989,2.31349 -8.194,1.63867 -12.0742,1.63867 v -11.20312 c 1.7867,0 4.018,-0.2394 6.1973,-0.22852 z m -42.7364,4.33594 c -1.8762,0.0274 -3.8338,0.27735 -4.8652,0.27734 h -26.793 v 7.08594 c 11.967,0.87309 23.6328,1.72406 36.5352,2.45313 v -3.69532 c 0,-1.4177 0.4428,-3.87158 -0.502,-5.06445 -0.7039,-0.8888 -2.4988,-1.08402 -4.375,-1.05664 z" /></g></g><style
     type="text/css"
     id="style1">
	.st0{fill:#FFFFFF;}
	.st1{fill:#DE4727;}
</style><style
     type="text/css"
     id="style1-5">
	.st0{fill:#FFFFFF;}
	.st1{fill:#DF4526;}
</style></svg>
