<?xml version="1.0" encoding="UTF-8" standalone="no"?>
<!-- Created with Inkscape (http://www.inkscape.org/) -->

<svg
   width="1000"
   height="500"
   viewBox="0 0 1000 500"
   version="1.1"
   id="svg1"
   xml:space="preserve"
   xmlns="http://www.w3.org/2000/svg"
   xmlns:svg="http://www.w3.org/2000/svg"><defs
     id="defs1" /><g
     id="layer1"
     transform="translate(-2985.8221,-221.89343)"><rect
       style="fill:#282828;fill-opacity:1;stroke:none;stroke-width:3;stroke-linejoin:round;stroke-dasharray:none;stroke-opacity:1"
       id="rect362-7-9-3"
       width="1000"
       height="500"
       x="2985.822"
       y="221.89343"
       ry="76.600182" /><path
       style="fill:#eb5e01;fill-opacity:1;stroke-width:1.37002"
       d="m 3030.4134,613.3039 c -6.0978,-1.46868 -12.2913,-7.63683 -13.9855,-13.92865 l -1.3798,-5.12417 0.374,-110.26584 0.3742,-110.26584 2.8247,-3.78271 c 1.5536,-2.08049 4.5272,-5.05386 6.608,-6.60739 l 3.7834,-2.8247 h 113.5111 113.5112 l 3.7833,2.8247 c 2.081,1.55364 5.0544,4.52727 6.608,6.60808 l 2.8248,3.78337 v 113.51109 113.51108 l -2.8248,3.78339 c -1.5536,2.0808 -4.5268,5.05452 -6.6071,6.60807 l -3.7828,2.82471 -110.5296,0.22191 c -60.7915,0.12207 -112.5833,-0.27265 -115.0931,-0.8771 z m 141.5525,-34.84228 c 56.4452,-19.33562 81.8354,-81.48554 55.1809,-135.07056 l -5.7926,-11.6452 -11.6724,-11.6452 c -12.9923,-12.96219 -22.3208,-19.0385 -37.244,-24.25962 l -10.049,-3.51582 -16.4402,-0.62978 -16.4403,-0.62977 -9.2202,2.16119 c -30.0231,7.03729 -61.4805,32.02826 -49.085,38.99487 l 5.4009,3.03549 6.2268,-6.22686 c 8.229,-8.22888 20.7776,-16.2186 31.302,-19.92979 l 8.5254,-3.0063 15.0962,-0.69223 15.0965,-0.69223 8.78,2.24937 c 4.8291,1.23715 12.8321,4.21129 17.7844,6.60916 l 9.004,4.35979 11.1056,11.01894 11.1054,11.01893 5.0388,10.51556 c 11.5729,24.15142 11.5218,49.24589 -0.1503,73.74094 l -4.8962,10.27519 -10.4166,10.43308 -10.4166,10.43309 -9.7089,4.88417 c -5.3398,2.68627 -13.6627,5.91638 -18.4953,7.178 l -8.7865,2.29386 -15.0703,-0.63108 -15.0702,-0.6311 -9.0084,-3.4708 c -12.5208,-4.82416 -20.8312,-10.29231 -31.0412,-20.42544 l -8.7584,-8.69247 -5.2179,-10.42506 c -2.8698,-5.73382 -6.0303,-13.59458 -7.0231,-17.46845 l -1.8051,-7.0434 h -6.5912 c -7.4704,0 -7.4137,-0.1449 -4.4381,11.33788 8.525,32.89902 34.9847,58.88884 69.4191,68.18627 l 9.9443,2.68505 16.4404,-0.46485 16.4402,-0.46484 z m -12.3334,-54.85616 c 8.1215,-3.97344 14.1985,-10.12319 18.7199,-18.9439 l 2.965,-5.78451 0.6357,-9.73122 0.6357,-9.73119 -3.7868,-8.43778 c -4.2805,-9.53811 -11.5393,-16.85346 -21.0405,-21.20419 l -6.3329,-2.89987 -10.2751,0.007 -10.2752,0.007 -6.937,3.62661 c -8.0902,4.22953 -16.235,12.7399 -19.8847,20.77708 l -2.5736,5.66781 v 10.27518 10.27518 l 2.5297,5.56966 c 9.793,21.56077 34.7119,30.7581 55.6198,20.52878 z m -30.5301,-11.81254 c -32.4781,-16.49706 -7.3257,-64.90199 25.4742,-49.02408 l 6.068,2.93749 3.8523,6.07446 c 8.7117,13.73729 5.4514,29.61394 -7.9696,38.81042 l -4.7384,3.24694 -8.4004,0.47227 -8.4001,0.47228 z m 23.1511,-8.4906 c 2.5605,-1.71048 5.7665,-5.25535 7.1247,-7.87764 l 2.4691,-4.76777 -0.6564,-5.36149 c -0.7113,-5.80968 -3.8228,-10.78728 -9.2991,-14.87589 l -3.4775,-2.59637 h -6.3664 -6.3666 l -4.6531,2.87582 c -11.5999,7.16919 -11.9767,22.70285 -0.779,32.12494 l 4.2644,3.58827 h 6.5424 6.5425 z m -120.702,-22.29335 c 0,-9.74029 3.866,-26.34255 8.8307,-37.92353 l 4.5358,-10.58082 -4.7064,-2.77691 c -6.4344,-3.79647 -6.7928,-3.66949 -10.5323,3.73068 -5.7541,11.38708 -10.6116,29.12231 -11.4449,41.78574 l -0.7886,11.98771 h 7.0529 7.0528 z m 28.2631,-4.39481 c 0.7978,-5.83973 3.1279,-14.77332 5.1779,-19.85242 4.0815,-10.11183 3.9463,-11.01681 -2.1156,-14.1515 l -4.1216,-2.13137 -1.8451,1.53125 c -4.0369,3.34997 -11.6584,30.39156 -11.6584,41.36327 v 3.85845 h 6.5561 6.5563 z m 26.9217,3.1854 c 0.4218,-4.08777 2.0006,-10.2208 3.5082,-13.62897 l 2.741,-6.1967 -4.7648,-2.81131 c -2.6207,-1.54619 -5.3017,-2.81132 -5.9582,-2.81132 -1.9653,0 -6.9706,15.02285 -8.0827,24.26021 l -1.0378,8.62037 h 6.4137 6.4135 z"
       id="path53" /><path
       style="fill:#eb5e01;fill-opacity:1;stroke-width:1.37002"
       d="m 3843.9759,450.85817 c 0,-5.5898 13.7313,-18.61669 22.9255,-21.74947 l 6.3331,-2.15792 h 47.0841 47.084 l 3.3629,3.36278 c 4.0872,4.08723 4.2597,8.68855 0.5949,15.87213 l -2.768,5.42551 h -62.3082 c -34.2695,0 -62.3083,-0.33886 -62.3083,-0.75303 z"
       id="path52" /><path
       style="fill:#eb5e01;fill-opacity:1;stroke-width:1.37002"
       d="m 3856.683,484.54047 c -10.6095,-2.542 -19.8303,-16.247 -15.5693,-23.14123 l 1.0679,-1.72812 49.1906,0.42262 49.1904,0.42262 4.5473,2.74006 c 5.8508,3.52559 9.8034,9.97132 10.2052,16.64188 l 0.3177,5.2785 -47.2657,0.21113 c -25.9962,0.11617 -49.2541,-0.26525 -51.6841,-0.84746 z"
       id="path51" /><path
       style="fill:#eb5e01;fill-opacity:1;stroke-width:1.37002"
       d="m 3785.4169,483.46428 c 0.3695,-1.31865 4.2699,-14.57364 8.6678,-29.45552 l 7.996,-27.05798 h 14.584 14.5838 l -5.8159,19.52284 c -3.1987,10.73757 -7.1427,23.99256 -8.7646,29.45552 l -2.9486,9.93268 h -14.4871 -14.4869 z"
       id="path50" /><path
       style="fill:#eb5e01;fill-opacity:1;stroke-width:1.37002"
       d="m 3707.3246,517.8592 c -5.1533,-2.54037 -9.3466,-8.71539 -10.5652,-15.55709 l -0.8539,-4.79508 10.3292,-34.78416 c 5.6808,-19.13127 10.329,-35.00642 10.329,-35.27812 0,-0.27169 6.1651,-0.49397 13.7002,-0.49397 7.5351,0 13.7003,0.52677 13.7003,1.17058 0,0.64384 -3.6991,13.68031 -8.2201,28.96994 -9.0097,30.46943 -9.4811,33.47941 -5.5703,35.57244 l 2.65,1.41823 h 110.249 110.2486 l -0.7275,2.78171 c -1.2782,4.88822 -12.541,16.06622 -19.8658,19.71628 l -7.0888,3.53247 -106.9352,-0.0312 -106.9355,-0.0313 z"
       id="path49" /><path
       style="fill:#eb5e01;fill-opacity:1;stroke-width:1.37002"
       d="m 3562.2095,518.15374 c 0.4133,-1.07726 6.3644,-20.95974 13.2244,-44.18328 6.8601,-23.22353 12.8064,-43.34044 13.2136,-44.70423 l 0.7407,-2.47963 35.8797,0.42459 35.8797,0.42459 9.1553,4.51013 c 18.5867,9.1564 30.7497,33.90291 24.5241,49.89622 l -1.4461,3.71545 -12.274,0.39462 -12.2738,0.39462 6.0713,14.38527 c 3.3391,7.91188 6.4209,15.48706 6.8485,16.83371 l 0.7772,2.44846 -13.4507,-0.39342 -13.4506,-0.39343 -6.253,-16.44028 -6.253,-16.44031 -17.3954,-0.38344 c -11.0614,-0.24381 -17.3956,-0.91046 -17.3956,-1.83078 0,-0.79603 1.3281,-6.01796 2.9513,-11.60428 l 2.9511,-10.15692 h 21.7093 21.7092 v -1.87027 c 0,-1.02865 -1.2778,-3.49469 -2.8396,-5.4801 l -2.8394,-3.60983 h -20.8536 -20.8537 l -10.1001,34.25062 -10.1003,34.25061 h -14.3041 -14.3042 z"
       id="path48" /><path
       style="fill:#eb5e01;fill-opacity:1;stroke-width:1.37002"
       d="m 3439.0605,517.60361 c 0.4378,-1.37985 5.0061,-16.6385 10.1515,-33.90811 12.2428,-41.09082 15.1612,-46.14275 30.8826,-53.46315 l 6.99,-3.2548 47.6084,-0.0137 c 26.1846,-0.007 47.6083,0.48992 47.6083,1.10506 0,3.09398 -19.4123,66.56818 -21.7348,71.069 -3.6287,7.0313 -11.8633,14.74 -19.3659,18.1291 l -6.1652,2.78493 -48.3857,0.0301 -48.3857,0.0301 z m 92.5773,-25.59086 c 4.9592,-2.56447 15.0429,-26.86277 15.0429,-36.24809 v -1.4134 h -27.3241 -27.3241 l -3.5478,3.08256 -3.5478,3.08254 -4.7344,15.75528 c -2.604,8.66541 -4.741,16.21767 -4.7489,16.7828 -0.014,0.56514 11.7302,1.02753 26.0844,1.02753 h 26.0983 z"
       id="path47" /><path
       style="fill:#eb5e01;fill-opacity:1;stroke-width:1.37002"
       d="m 3407.3864,505.7093 4.2538,-14.49272 -1.4712,-2.33487 -1.4713,-2.33489 -24.1701,-0.37411 c -14.918,-0.23091 -24.1702,-0.89751 -24.1702,-1.74142 0,-0.75201 1.3566,-5.97813 3.0145,-11.61358 l 3.0145,-10.24631 h 23.6795 23.6793 l 4.0486,-3.76756 4.0489,-3.76758 4.2517,-14.04273 4.2518,-14.04275 h 14.3266 c 7.8794,0 14.3123,0.46237 14.2949,1.02752 -0.019,0.56513 -6.0774,21.37237 -13.4666,46.2383 l -13.4349,45.21081 -14.4668,0.3873 -14.4666,0.38733 z"
       id="path46" /><path
       style="fill:#eb5e01;fill-opacity:1;stroke-width:1.37002"
       d="m 3319.2057,502.68966 c 2.8453,-9.63206 9.0547,-30.61371 13.7987,-46.62587 l 8.6256,-29.11301 h 14.1587 c 7.7874,0 14.1469,0.46237 14.1324,1.02752 -0.015,0.56513 -6.0607,21.37237 -13.4359,46.2383 l -13.4093,45.21081 -14.5216,0.38755 -14.5217,0.38757 z"
       id="path45" /><path
       id="path7"
       style="fill:#c0c5c9;fill-opacity:1;stroke-width:1.37002"
       d="m 3538.4605,572.78584 c 0,-0.41663 1.6511,-6.27349 3.6693,-13.01523 l 3.6693,-12.2577 h 10.4112 10.4111 l 2.8561,2.00047 c 6.4617,4.526 7.456,13.71456 1.6049,14.83199 -1.7415,0.33259 6.5437,0.68867 18.4115,0.79128 22.1467,0.19149 23.2917,0.52341 19.1804,5.56064 l -2.3976,2.93757 -21.8705,-0.38826 -21.8707,-0.38824 -1.2754,-4.45258 -1.2756,-4.45257 h -4.7434 -4.7436 l 0.8317,-2.1671 c 0.4574,-1.19189 0.8316,-2.73317 0.8316,-3.42506 0,-0.69187 2.8976,-1.25797 6.4391,-1.25797 h 6.439 l -1.4633,-1.46349 c -0.8049,-0.80491 -3.8564,-1.2673 -6.7811,-1.02752 l -5.3175,0.43598 -2.6514,9.24765 -2.6515,9.24767 h -3.8567 c -2.1213,0 -3.8569,-0.34089 -3.8569,-0.75753 z m 84.078,-2.32503 c 0.4545,-1.6954 0.8346,-3.54493 0.8449,-4.11007 0.014,-0.56513 7.4168,-1.02751 16.4589,-1.02751 h 16.4404 v 2.69185 c 0,4.32042 -4.3557,5.52829 -19.9352,5.52829 h -14.635 z m 36.4842,2.39243 c 0,-3.54651 6.3373,-20.71737 8.4118,-22.79194 l 2.5484,-2.54839 h 14.5318 14.5319 l -0.6849,1.7847 c -0.3766,0.98158 -1.7486,5.5759 -3.0487,10.20956 -1.3003,4.63368 -3.587,9.53329 -5.082,10.88803 l -2.7182,2.46316 -14.2451,0.46722 c -7.8347,0.25696 -14.245,0.0445 -14.245,-0.47234 z m 28.2722,-13.01011 1.5567,-4.79508 -7.0255,-0.42559 -7.0253,-0.42558 -2.409,2.97489 c -1.3249,1.63621 -2.4089,4.1704 -2.4089,5.63155 v 2.65665 l 7.8775,-0.41089 7.8777,-0.41087 z m 8.751,11.98771 c 0.018,-0.94189 1.4717,-6.64461 3.2307,-12.67273 l 3.1979,-10.96018 20.9493,-0.28129 c 12.545,-0.16846 22.0251,0.29445 23.6308,1.15384 l 2.6815,1.43513 -0.8055,4.02808 c -0.443,2.21544 -1.7856,7.39893 -2.9832,11.51888 l -2.1777,7.4908 h -4.6978 c -2.5838,0 -4.6979,-0.19636 -4.6979,-0.43636 0,-0.23999 0.9671,-3.6926 2.1489,-7.67248 2.6306,-8.8578 1.8857,-11.40215 -3.1676,-10.82074 l -3.7743,0.43426 -2.6519,9.24765 -2.6518,9.24767 h -4.5418 c -5.2904,0 -5.1627,0.50252 -2.3399,-9.20767 l 2.2019,-7.57436 -1.8595,-1.207 c -1.0226,-0.66385 -3.0722,-1.04935 -4.5548,-0.85665 l -2.6954,0.35036 -2.6391,9.24765 -2.6391,9.24767 h -4.5981 c -2.7824,0 -4.5854,-0.67621 -4.5656,-1.71253 z m -256.9121,-1.60631 -53.431,-1.47624 20.5504,-1.00911 c 11.3026,-0.55501 38.4292,-1.34652 60.281,-1.75891 21.8519,-0.41239 42.9675,-1.08156 46.9234,-1.48702 l 7.1927,-0.73721 v 4.20865 4.20866 l -14.0429,-0.23629 c -7.7234,-0.13001 -38.0866,-0.9006 -67.4736,-1.71253 z m 328.1208,-1.80833 v -4.16785 l 14.0427,0.55786 c 7.7236,0.30681 37.7399,1.17803 66.7032,1.93604 28.9631,0.75801 52.8601,1.57793 53.1042,1.82206 0.2442,0.24412 -19.1375,0.85296 -43.0703,1.35295 -23.9327,0.50004 -54.1489,1.3046 -67.1469,1.78797 l -23.6329,0.87882 z m -141.9442,-8.00011 c 0.4575,-1.1919 0.8317,-2.95737 0.8317,-3.92325 0,-0.96589 1.6253,-3.38152 3.6119,-5.36806 l 3.6119,-3.61187 h 12.736 12.7361 l 0.9011,2.83892 c 0.4955,1.56142 0.5253,4.33572 0.065,6.16511 l -0.835,3.32619 h -3.9241 -3.9242 l -0.7384,-2.82402 -0.7386,-2.82402 -5.9185,0.42647 -5.9187,0.42649 -1.7977,3.76755 -1.7974,3.76757 h -4.8668 -4.8671 z m -169.7364,-5.60907 c -27.1264,-0.88607 -52.0951,-1.81084 -55.4859,-2.05503 -3.3908,-0.24419 18.7188,-1.2479 49.1328,-2.23044 59.4288,-1.9199 56.7775,-2.04692 56.1197,2.68872 l -0.4457,3.2078 z m 326.7499,-2.15652 v -3.76757 l 9.9326,0.13098 c 22.4755,0.2962 101.0492,3.58073 92.8192,3.88003 -4.8978,0.1781 -30.0212,1.04391 -55.8295,1.92401 l -46.9242,1.60018 z m -170.7522,18.82639 c 0.4786,-1.24723 0.8702,-2.83379 0.8702,-3.52567 0,-0.69188 1.8923,-1.25797 4.2054,-1.25797 h 4.2052 l -0.4377,3.08255 -0.4378,3.08256 -4.6377,0.44312 -4.6378,0.44311 z m -33.3804,-8.93772 c 0,-3.46511 4.18,-10.89884 7.265,-12.92027 l 3.384,-2.21721 12.1432,0.39811 12.1433,0.39813 v 5.48009 5.48009 l -4.4525,0.42931 -4.4526,0.42931 v -2.90191 -2.90192 l -6.5076,0.41757 -6.5077,0.41758 -1.9596,4.45257 -1.9598,4.45259 h -4.5479 c -2.5014,0 -4.5478,-0.63631 -4.5478,-1.41404 z" /></g><style
     type="text/css"
     id="style1">
	.st0{fill:#FFFFFF;}
	.st1{fill:#DE4727;}
</style><style
     type="text/css"
     id="style1-5">
	.st0{fill:#FFFFFF;}
	.st1{fill:#DF4526;}
</style></svg>
