<?xml version="1.0" encoding="UTF-8"?>
<!-- Generator: Adobe Illustrator 24.3.0, SVG Export Plug-In . SVG Version: 6.00 Build 0)  -->
<svg version="1.1" id="Layer_1" xmlns="http://www.w3.org/2000/svg" xmlns:xlink="http://www.w3.org/1999/xlink" x="0px" y="0px" viewBox="0 0 460.3 131.9" style="enable-background:new 0 0 460.3 131.9;" xml:space="preserve">
<style type="text/css">
	.st0{fill:#FFFFFF;}
	.st1{fill:#DE4727;}
</style>
<g>
	<g>
		<path class="st0" d="M130.4,6.5h81.8v24.5h-55.2v22.4h52.2v24.5h-52.2v24.5h58.3v24.5h-84.8V6.5z"/>
		<path class="st0" d="M237.5,6.5h81.8v24.5H264v22.4h52.2v24.5H264v24.5h58.3v24.5h-84.8V6.5z"/>
		<path class="st0" d="M343.5,6.5h39.8c9.6,0,18.8,1.1,27.5,3.2c8.7,2.2,16.2,5.6,22.7,10.5c6.5,4.8,11.6,11.1,15.4,18.8    c3.8,7.7,5.7,17.1,5.7,28c0,9.7-1.8,18.3-5.5,25.8c-3.7,7.4-8.6,13.7-14.9,18.7c-6.2,5-13.4,8.9-21.6,11.5    c-8.2,2.6-16.7,3.9-25.7,3.9h-43.3V6.5z M370,102.3h13.8c6.1,0,11.8-0.6,17.1-1.9c5.3-1.2,9.8-3.3,13.7-6.2    c3.9-2.9,6.9-6.7,9.1-11.4c2.2-4.7,3.3-10.5,3.3-17.3c0-5.9-1.1-11-3.3-15.4c-2.2-4.4-5.2-8-8.9-10.8c-3.7-2.8-8.1-5-13.2-6.4    c-5-1.4-10.3-2.1-15.9-2.1H370V102.3z"/>
	</g>
	<path class="st1" d="M37.9,45.9c10.2-15.7,31-21.3,47.9-12.3l18.1-5.8l-5.6-17.7C69.6-5.1,34.5,4,16.5,30.1L37.9,45.9z"/>
	<g>
		<path class="st0" d="M12.7,36.2C-3.6,67,8.1,105.4,38.9,121.7c27,14.4,59.9,7.1,78.6-15.8l-21.2-16c-0.8,0.9-1.7,1.8-2.6,2.7l0,0    c-11.1,10.5-28.1,13.3-42.4,5.7c-17.9-9.5-24.7-31.7-15.2-49.6c0.5-1,1.1-1.9,1.7-2.8L16.5,30.1"/>
	</g>
</g>
</svg>